<svg version="1.1" id="Layer_1" xmlns="http://www.w3.org/2000/svg" xmlns:xlink="http://www.w3.org/1999/xlink" x="0px" y="0px"
	 width="100%" viewBox="0 0 800 800" enable-background="new 0 0 800 800" xml:space="preserve">
<path fill="#05E93B" opacity="1.000000" stroke="none" 
	d="
M801.000000,671.000000 
	C801.000000,672.388977 801.000000,673.778015 800.647949,675.757385 
	C799.531311,680.305176 798.766724,684.262573 797.770508,688.486206 
	C797.043152,689.560120 796.345764,690.307861 796.084656,691.185425 
	C794.526367,696.423950 793.392334,701.810425 791.525330,706.931946 
	C778.399414,742.939087 754.716187,769.511230 720.065002,786.094482 
	C713.840515,789.073181 707.407227,791.615479 700.819336,794.644043 
	C697.073608,795.640930 693.578918,796.353088 689.798584,796.891113 
	C682.754944,797.525391 675.996826,798.333801 668.895386,799.085327 
	C667.697571,799.221069 666.843018,799.413696 665.605103,799.674500 
	C664.460327,799.638000 663.698975,799.533325 662.791077,799.091309 
	C661.059082,798.502625 659.474854,798.042175 657.888123,798.033508 
	C646.401001,797.971130 634.913391,798.000000 623.425903,798.000000 
	C488.239929,798.000000 353.053925,797.994019 217.867981,798.059631 
	C215.932175,798.060608 213.996780,798.957336 211.693634,799.566040 
	C210.551178,799.667603 209.776276,799.639221 208.710693,799.408386 
	C207.210999,799.171509 206.001968,799.136963 204.341858,799.095581 
	C199.908203,799.073730 195.925629,799.058899 191.971893,799.026733 
	C192.000732,799.009460 191.989502,799.075745 191.940323,798.694824 
	C191.368683,797.955078 190.882401,797.357727 190.318542,797.272217 
	C173.816177,794.771484 158.433624,789.071838 144.156509,780.561951 
	C133.758301,774.364075 123.514275,767.834961 116.363174,757.789551 
	C120.449814,759.386597 124.073936,761.452820 127.933571,762.883850 
	C136.584290,766.091309 145.352158,768.982849 154.034943,772.022949 
	C153.997543,772.042908 153.945267,771.976196 154.045822,772.091797 
	C154.146378,772.207336 154.548859,772.304016 154.548859,772.304016 
	C154.548859,772.304016 154.890839,772.032959 155.079010,771.987061 
	C155.267166,771.941162 155.654099,771.922363 155.913132,772.215271 
	C163.676575,773.890625 171.180984,775.273071 179.180481,776.723267 
	C183.004501,776.868164 186.333450,777.012390 189.662399,777.012634 
	C338.718292,777.023743 487.774200,777.024963 636.830078,777.006409 
	C640.655762,777.005920 644.481384,776.773376 648.693787,776.610168 
	C651.339539,776.288757 653.655396,776.230591 655.845703,775.676575 
	C660.260803,774.559814 664.607605,773.173157 668.971436,771.937012 
	C668.960266,771.976135 668.911255,771.911133 669.235168,771.959595 
	C669.774414,771.971558 669.989685,771.935059 670.575073,771.891968 
	C672.337891,771.595398 673.730530,771.305542 675.323975,771.194580 
	C676.709351,770.955933 677.893738,770.538330 679.475342,770.090454 
	C682.930054,768.547546 685.987671,767.034973 689.105957,765.446533 
	C689.166687,765.370605 689.469360,765.127014 689.627136,765.458496 
	C690.511780,765.500061 691.238647,765.210144 691.979736,764.959595 
	C691.994019,764.998901 691.942200,764.933105 692.324707,765.041870 
	C694.126465,764.710144 695.639282,764.456970 696.951233,763.801636 
	C734.837097,744.877136 760.183777,715.369873 772.001465,674.540833 
	C772.712524,672.083923 772.636292,669.399170 773.101440,666.472229 
	C774.217041,658.741699 775.157654,651.359436 776.415833,643.705322 
	C776.827087,641.942871 777.002502,640.452209 777.002625,638.961548 
	C777.014160,488.375305 777.015625,337.789032 776.973389,187.202805 
	C776.972900,185.476410 776.396606,183.750168 776.043213,181.567505 
	C774.948120,174.257996 773.898926,167.404831 772.864624,160.259277 
	C772.934082,159.580460 772.988770,159.194031 773.213623,158.612976 
	C771.902893,154.276855 770.421814,150.135391 768.970398,145.996887 
	C769.000000,145.999847 768.974365,146.053558 769.012939,145.633972 
	C768.504578,142.818695 768.301208,140.275665 767.348511,138.053940 
	C764.028748,130.312119 760.449463,122.681549 757.369019,114.935287 
	C758.312256,114.897041 758.855347,114.932198 759.618408,115.039749 
	C760.220398,115.582344 760.602478,116.052528 760.954712,116.904114 
	C761.682861,118.348343 762.344543,119.497917 763.212830,120.461296 
	C785.350525,145.025208 797.288391,173.828476 799.109070,207.157410 
	C799.242188,208.335541 799.442383,209.177338 799.687744,210.365814 
	C799.633667,211.162094 799.534363,211.611725 799.096985,212.207489 
	C798.505920,213.938187 798.049194,215.520844 798.034363,217.107620 
	C797.959534,225.098160 798.000000,233.089798 798.000000,241.081039 
	C798.000000,379.762451 797.994141,518.443909 798.059204,657.125305 
	C798.060120,659.062988 798.952454,661.000305 799.556885,663.265137 
	C799.669373,664.058350 799.653564,664.524231 799.429565,665.291870 
	C799.814270,667.395752 800.407104,669.197876 801.000000,671.000000 
z"/>
<path fill="#FEFEFE" opacity="1.000000" stroke="none" 
	d="
M760.984497,116.522713 
	C760.602478,116.052528 760.220398,115.582344 759.465027,114.767853 
	C758.459534,113.961044 757.827332,113.498535 756.870850,112.968567 
	C756.106506,112.901459 755.666565,112.901810 755.079529,112.570633 
	C753.007568,109.799759 751.082642,107.360413 748.986389,104.606674 
	C748.243530,104.168533 747.672119,104.044792 747.058960,103.953392 
	C747.017212,103.985733 747.079834,103.900803 747.294006,103.584923 
	C740.440918,96.136574 733.373596,89.004105 726.126404,81.581482 
	C720.825623,75.951401 715.704773,70.611481 710.417969,64.997337 
	C707.469299,62.596745 704.686584,60.470367 701.658813,58.097816 
	C699.038574,55.096252 696.673584,52.331966 694.286499,49.586891 
	C675.305969,27.759317 651.862427,13.054500 623.847229,5.828311 
	C617.337646,4.149227 610.633240,3.225623 604.007263,1.715930 
	C603.996094,1.477455 604.000000,1.000000 604.000000,1.000000 
	C669.593689,1.000000 735.187378,1.000000 801.000000,1.000000 
	C801.000000,66.354065 801.000000,131.708374 800.655823,197.306000 
	C796.747803,167.777786 784.851562,141.784134 764.838074,119.497810 
	C763.771606,118.310265 762.278809,117.505623 760.984497,116.522713 
z"/>
<path fill="#FEFEFE" opacity="1.000000" stroke="none" 
	d="
M197.000000,801.000000 
	C131.738907,801.000000 66.477814,801.000000 1.000000,801.000000 
	C1.000000,734.645935 1.000000,668.291626 1.232929,601.499023 
	C1.465858,601.060669 1.923851,601.165222 1.907968,601.607788 
	C2.562959,606.736633 3.017293,611.466187 3.942532,616.101685 
	C7.764022,635.247742 14.616578,653.352905 26.744585,668.649963 
	C36.177303,680.547485 47.427742,691.003845 57.937664,702.432251 
	C65.605637,710.209900 73.206253,717.655823 80.934814,725.413025 
	C83.147194,728.003113 85.231628,730.281860 87.493866,732.845764 
	C93.411728,738.114014 99.151802,743.097229 104.935379,748.048828 
	C104.978889,748.017334 104.913986,748.102966 104.652306,748.381409 
	C105.215271,749.546143 106.039917,750.432434 106.917152,751.513428 
	C107.108040,751.964355 107.320877,752.115723 107.707657,752.467529 
	C108.138702,753.031006 108.470352,753.289307 108.834946,753.865479 
	C109.876556,754.864441 110.885208,755.545410 111.980667,756.477173 
	C112.359795,756.925842 112.652122,757.123718 113.075119,757.622803 
	C114.535141,759.538025 115.701988,761.326477 117.218399,762.739807 
	C137.110779,781.280823 160.189560,793.639954 187.454437,798.693604 
	C188.896545,798.948914 189.965927,799.048584 191.283966,799.263306 
	C191.684921,799.277466 191.837204,799.176636 191.989502,799.075745 
	C191.989502,799.075745 192.000732,799.009460 192.162750,799.335266 
	C193.883179,800.107361 195.441589,800.553711 197.000000,801.000000 
z"/>
<path fill="#FDFDFD" opacity="1.000000" stroke="none" 
	d="
M1.000000,126.000000 
	C1.000000,84.406364 1.000000,42.812733 1.000000,1.000000 
	C42.353970,1.000000 83.708328,1.000000 125.468697,1.282280 
	C125.524986,2.015404 125.175262,2.466248 124.395912,2.912683 
	C121.318062,3.119806 118.620598,3.077616 116.028961,3.580669 
	C72.362778,12.056548 39.737949,35.896782 18.040409,74.608948 
	C9.107911,90.546066 3.973831,107.801323 1.658442,125.924194 
	C1.436074,125.895531 1.000000,126.000000 1.000000,126.000000 
z"/>
<path fill="#FDFDFD" opacity="1.000000" stroke="none" 
	d="
M690.084167,797.065247 
	C693.578918,796.353088 697.073608,795.640930 701.239990,794.547241 
	C704.013184,793.813843 706.232422,793.783142 708.198853,793.062622 
	C741.589355,780.828674 767.005371,759.188782 784.185059,728.038574 
	C791.052490,715.586609 796.317322,702.505737 798.002136,688.219971 
	C798.766724,684.262573 799.531311,680.305176 800.647949,676.173889 
	C801.000000,717.593018 801.000000,759.186096 801.000000,801.000000 
	C760.312683,801.000000 719.625000,801.000000 678.667725,800.646301 
	C682.293457,799.216797 686.188843,798.140991 690.084167,797.065247 
z"/>
<path fill="#131313" opacity="1.000000" stroke="none" 
	d="
M124.825539,2.917091 
	C125.175262,2.466248 125.524986,2.015404 125.937355,1.282280 
	C285.024902,1.000000 444.049805,1.000000 603.537354,1.000000 
	C604.000000,1.000000 603.996094,1.477455 603.760315,2.039340 
	C598.929626,2.400365 594.334778,2.024897 589.739807,2.023952 
	C439.887451,1.993168 290.035126,1.989312 140.182800,2.036953 
	C135.063614,2.038581 129.944626,2.610818 124.825539,2.917091 
z"/>
<path fill="#131313" opacity="1.000000" stroke="none" 
	d="
M1.000000,126.463882 
	C1.000000,126.000000 1.436074,125.895531 1.984832,126.165344 
	C2.355979,130.694412 2.023848,134.953644 2.023100,139.212921 
	C1.996646,289.698883 2.001788,440.184875 1.998278,590.670837 
	C1.998197,594.168945 1.949742,597.667114 1.923851,601.165222 
	C1.923851,601.165222 1.465858,601.060669 1.232929,601.030334 
	C1.000000,442.975922 1.000000,284.951843 1.000000,126.463882 
z"/>
<path fill="#112015" opacity="1.000000" stroke="none" 
	d="
M799.435059,212.061356 
	C799.534363,211.611725 799.633667,211.162094 799.813232,210.041580 
	C799.927979,208.908554 799.962463,208.446426 800.247925,207.979706 
	C800.665833,207.983444 800.832947,207.991730 801.000000,208.000000 
	C801.000000,361.356659 801.000000,514.713318 800.693604,668.331543 
	C800.137390,667.392090 799.887573,666.191162 799.637756,664.990173 
	C799.653564,664.524231 799.669373,664.058350 799.679688,662.815918 
	C799.702271,661.207886 799.754639,660.376282 799.754700,659.544678 
	C799.758911,511.870605 799.760376,364.196564 799.746582,216.522507 
	C799.746460,215.035446 799.543396,213.548401 799.435059,212.061356 
z"/>
<path fill="#112015" opacity="1.000000" stroke="none" 
	d="
M662.937683,799.428711 
	C663.698975,799.533325 664.460327,799.638000 665.869263,799.815796 
	C666.712219,799.929749 666.907532,799.970520 667.086426,800.259521 
	C667.070068,800.507629 667.000000,801.000000 667.000000,801.000000 
	C514.310669,801.000000 361.621368,801.000000 208.417328,800.754578 
	C207.888580,800.342957 207.874542,800.176697 208.158859,799.948120 
	C208.638596,799.794067 208.819992,799.702393 209.001373,799.610779 
	C209.776276,799.639221 210.551178,799.667603 212.143204,799.687256 
	C213.792007,799.705139 214.623672,799.755249 215.455353,799.755310 
	C363.129669,799.759216 510.804016,799.760620 658.478333,799.746460 
	C659.964783,799.746338 661.451233,799.539124 662.937683,799.428711 
z"/>
<path fill="#2C6139" opacity="1.000000" stroke="none" 
	d="
M801.000000,207.545898 
	C800.832947,207.991730 800.665833,207.983444 800.145264,207.762405 
	C799.653259,207.250458 799.448059,207.007599 799.176147,206.821091 
	C797.288391,173.828476 785.350525,145.025208 763.212830,120.461296 
	C762.344543,119.497917 761.682861,118.348343 760.954712,116.904114 
	C762.278809,117.505623 763.771606,118.310265 764.838074,119.497810 
	C784.851562,141.784134 796.747803,167.777786 800.655823,197.774658 
	C801.000000,201.030594 801.000000,204.061188 801.000000,207.545898 
z"/>
<path fill="#406549" opacity="1.000000" stroke="none" 
	d="
M667.458069,801.000000 
	C667.000000,801.000000 667.070068,800.507629 667.377197,800.216492 
	C668.202515,799.664368 668.720581,799.403320 669.238708,799.142273 
	C675.996826,798.333801 682.754944,797.525391 689.798584,796.891113 
	C686.188843,798.140991 682.293457,799.216797 678.199097,800.646301 
	C674.638733,801.000000 671.277405,801.000000 667.458069,801.000000 
z"/>
<path fill="#406549" opacity="1.000000" stroke="none" 
	d="
M207.860504,800.010498 
	C207.874542,800.176697 207.888580,800.342957 207.951294,800.754578 
	C204.638718,801.000000 201.277420,801.000000 197.458069,801.000000 
	C195.441589,800.553711 193.883179,800.107361 192.133911,799.352539 
	C195.925629,799.058899 199.908203,799.073730 204.591049,799.318787 
	C206.147720,799.702759 207.004120,799.856628 207.860504,800.010498 
z"/>
<path fill="#04AB2B" opacity="1.000000" stroke="none" 
	d="
M799.429565,665.291870 
	C799.887573,666.191162 800.137390,667.392090 800.693604,668.796509 
	C801.000000,669.444458 801.000000,669.888916 801.000000,670.666687 
	C800.407104,669.197876 799.814270,667.395752 799.429565,665.291870 
z"/>
<path fill="#FEF500" opacity="1.000000" stroke="none" 
	d="
M773.043396,158.807617 
	C772.988770,159.194031 772.934082,159.580460 772.738159,160.742081 
	C773.410400,180.794159 774.898804,200.069977 774.928650,219.348068 
	C775.135010,352.513794 775.138550,485.680206 774.905212,618.845825 
	C774.877014,634.924866 773.040100,651.000732 771.968872,667.421448 
	C771.572815,669.133484 771.249390,670.502136 770.731140,672.106140 
	C770.491516,672.929199 770.446777,673.516968 770.285278,674.380737 
	C770.063293,675.041748 769.958069,675.426819 769.627686,676.034973 
	C769.326904,676.872009 769.251343,677.485962 769.037476,678.436523 
	C755.874939,717.534546 730.916382,745.673767 693.899963,763.107605 
	C693.131287,763.469604 692.589722,764.313843 691.942200,764.933105 
	C691.942200,764.933105 691.994019,764.998901 691.571411,764.781067 
	C690.589050,764.751160 690.029175,764.939087 689.469360,765.127014 
	C689.469360,765.127014 689.166687,765.370605 688.711609,765.494873 
	C685.176453,766.773804 682.096375,767.928467 678.674072,769.077637 
	C677.262268,769.720032 676.192688,770.367859 675.123108,771.015686 
	C673.730530,771.305542 672.337891,771.595398 670.424438,771.735596 
	C669.572754,771.694336 669.242004,771.802734 668.911255,771.911133 
	C668.911255,771.911133 668.960266,771.976135 668.546265,771.861816 
	C657.234009,772.845642 646.337097,774.884521 635.437378,774.900085 
	C487.356384,775.111328 339.275024,775.050720 191.193771,775.006042 
	C186.048752,775.004456 180.890900,774.614075 175.762222,774.149109 
	C169.047424,773.540283 162.355728,772.676514 155.654099,771.922363 
	C155.654099,771.922363 155.267166,771.941162 154.846039,771.924316 
	C154.424927,771.907532 153.945267,771.976196 153.945267,771.976196 
	C153.945267,771.976196 153.997543,772.042908 153.810120,771.753906 
	C152.984070,770.997986 152.410645,770.297546 151.697250,770.098267 
	C135.505981,765.575928 120.832855,757.951172 106.857918,748.130127 
	C106.051880,747.943481 105.482933,748.023193 104.913986,748.102966 
	C104.913986,748.102966 104.978889,748.017334 105.250656,747.792786 
	C104.119728,746.234558 102.675323,744.941650 101.322487,743.559143 
	C97.862534,740.023499 94.443359,736.447876 91.290642,732.569336 
	C99.407852,735.821838 107.242287,739.393311 115.462357,743.005615 
	C123.767136,745.405762 131.686279,747.765076 139.963013,750.346191 
	C148.752151,751.374146 157.183044,752.875061 165.615372,752.883118 
	C314.525085,753.025696 463.434937,752.997681 612.344788,752.943176 
	C617.989136,752.941101 623.643372,752.411072 629.270630,751.887085 
	C630.735046,751.750610 632.114929,750.707275 633.928223,750.090515 
	C644.660706,747.370850 654.998474,744.641235 665.685120,741.993225 
	C680.062927,736.755127 692.467468,728.756714 703.822571,719.057373 
	C704.751831,718.263550 705.314819,717.040894 706.023438,716.007324 
	C705.998779,715.997131 706.004944,716.050110 706.330444,716.011719 
	C706.931091,715.635620 707.206238,715.297852 707.610046,714.905273 
	C707.895508,714.730225 707.987549,714.572327 708.312012,714.222656 
	C708.876160,713.716858 709.143188,713.365173 709.641602,712.870422 
	C710.590576,711.933716 711.308044,711.140076 712.263977,710.256775 
	C712.804504,709.774048 713.106506,709.380920 713.599243,708.876038 
	C713.789978,708.764221 714.004028,708.377319 714.223511,708.277222 
	C714.656799,707.790833 714.870605,707.404541 715.047974,707.021606 
	C715.011475,707.025024 715.050537,707.087036 715.334290,707.045166 
	C715.762268,706.673950 715.906555,706.344727 716.025024,706.007996 
	C715.999329,706.000549 716.021118,706.049622 716.365967,706.040771 
	C727.809814,694.985535 735.440125,681.764282 741.052612,666.864929 
	C742.775635,661.594360 744.467468,656.717224 746.514771,651.789490 
	C747.265259,651.073303 747.918091,650.443665 748.016663,649.736816 
	C749.712891,637.574158 752.743591,625.405090 752.770264,613.231445 
	C753.097900,463.780487 752.986267,314.328522 752.962830,164.876816 
	C752.962402,162.230988 752.650391,159.585190 752.524292,156.517990 
	C751.103882,147.298218 749.702759,138.488968 748.114929,129.713516 
	C747.885681,128.446487 746.758484,127.341942 746.065735,125.759262 
	C744.668213,121.259232 743.571899,117.014801 741.768311,113.095833 
	C738.063782,105.046288 733.980408,97.171051 730.401733,89.156227 
	C735.059265,93.209702 739.343689,97.357025 743.694885,101.432945 
	C744.706299,102.380356 745.945496,103.084641 747.079834,103.900803 
	C747.079834,103.900803 747.017212,103.985733 746.786987,104.128983 
	C746.614441,104.480225 746.672058,104.688217 746.873657,105.222900 
	C751.196289,112.151909 755.730835,118.560890 759.451843,125.411758 
	C763.060791,132.056198 765.834106,139.154556 768.974365,146.053558 
	C768.974365,146.053558 769.000000,145.999847 768.869629,146.404510 
	C770.174011,150.808655 771.608704,154.808136 773.043396,158.807617 
z"/>
<path fill="#05FD40" opacity="1.000000" stroke="none" 
	d="
M799.096924,212.207489 
	C799.543396,213.548401 799.746460,215.035446 799.746582,216.522507 
	C799.760376,364.196564 799.758911,511.870605 799.754700,659.544678 
	C799.754639,660.376282 799.702271,661.207886 799.551514,662.488647 
	C798.952454,661.000305 798.060120,659.062988 798.059204,657.125305 
	C797.994141,518.443909 798.000000,379.762451 798.000000,241.081039 
	C798.000000,233.089798 797.959534,225.098160 798.034363,217.107620 
	C798.049194,215.520844 798.505920,213.938187 799.096924,212.207489 
z"/>
<path fill="#05FD40" opacity="1.000000" stroke="none" 
	d="
M662.791077,799.091309 
	C661.451233,799.539124 659.964783,799.746338 658.478333,799.746460 
	C510.804016,799.760620 363.129669,799.759216 215.455353,799.755310 
	C214.623672,799.755249 213.792007,799.705139 212.510773,799.557251 
	C213.996780,798.957336 215.932175,798.060608 217.867981,798.059631 
	C353.053925,797.994019 488.239929,798.000000 623.425903,798.000000 
	C634.913391,798.000000 646.401001,797.971130 657.888123,798.033508 
	C659.474854,798.042175 661.059082,798.502625 662.791077,799.091309 
z"/>
<path fill="#857802" opacity="1.000000" stroke="none" 
	d="
M155.913132,772.215271 
	C162.355728,772.676514 169.047424,773.540283 175.762222,774.149109 
	C180.890900,774.614075 186.048752,775.004456 191.193771,775.006042 
	C339.275024,775.050720 487.356384,775.111328 635.437378,774.900085 
	C646.337097,774.884521 657.234009,772.845642 668.557373,771.822632 
	C664.607605,773.173157 660.260803,774.559814 655.845703,775.676575 
	C653.655396,776.230591 651.339539,776.288757 648.313110,776.386230 
	C646.386963,776.132935 645.228333,776.005066 644.069641,776.005005 
	C490.559967,775.996399 337.050323,775.995117 183.540649,776.024719 
	C181.922195,776.025024 180.303818,776.436157 178.685394,776.655518 
	C171.180984,775.273071 163.676575,773.890625 155.913132,772.215271 
z"/>
<path fill="#897801" opacity="1.000000" stroke="none" 
	d="
M772.041504,667.078064 
	C773.040100,651.000732 774.877014,634.924866 774.905212,618.845825 
	C775.138550,485.680206 775.135010,352.513794 774.928650,219.348068 
	C774.898804,200.069977 773.410400,180.794159 772.723389,161.034485 
	C773.898926,167.404831 774.948120,174.257996 776.007324,182.032471 
	C776.019409,332.467041 776.020996,481.980286 776.026733,631.493530 
	C776.026917,635.654724 776.073303,639.815918 776.098145,643.977112 
	C775.157654,651.359436 774.217041,658.741699 772.881348,666.541382 
	C772.486145,666.958801 772.041504,667.078064 772.041504,667.078064 
z"/>
<path fill="#00340F" opacity="1.000000" stroke="none" 
	d="
M179.180481,776.723267 
	C180.303818,776.436157 181.922195,776.025024 183.540649,776.024719 
	C337.050323,775.995117 490.559967,775.996399 644.069641,776.005005 
	C645.228333,776.005066 646.386963,776.132935 647.926392,776.425110 
	C644.481384,776.773376 640.655762,777.005920 636.830078,777.006409 
	C487.774200,777.024963 338.718292,777.023743 189.662399,777.012634 
	C186.333450,777.012390 183.004501,776.868164 179.180481,776.723267 
z"/>
<path fill="#00320F" opacity="1.000000" stroke="none" 
	d="
M776.415771,643.705322 
	C776.073303,639.815918 776.026917,635.654724 776.026733,631.493530 
	C776.020996,481.980286 776.019409,332.467041 776.053162,182.488815 
	C776.396606,183.750168 776.972900,185.476410 776.973389,187.202805 
	C777.015625,337.789032 777.014160,488.375305 777.002625,638.961548 
	C777.002502,640.452209 776.827087,641.942871 776.415771,643.705322 
z"/>
<path fill="#2C6139" opacity="1.000000" stroke="none" 
	d="
M797.770508,688.486206 
	C796.317322,702.505737 791.052490,715.586609 784.185059,728.038574 
	C767.005371,759.188782 741.589355,780.828674 708.198853,793.062622 
	C706.232422,793.783142 704.013184,793.813843 701.490967,794.262451 
	C707.407227,791.615479 713.840515,789.073181 720.065002,786.094482 
	C754.716187,769.511230 778.399414,742.939087 791.525330,706.931946 
	C793.392334,701.810425 794.526367,696.423950 796.084656,691.185425 
	C796.345764,690.307861 797.043152,689.560120 797.770508,688.486206 
z"/>
<path fill="#2C580D" opacity="1.000000" stroke="none" 
	d="
M771.968872,667.421448 
	C772.041504,667.078064 772.486145,666.958801 772.706299,666.889648 
	C772.636292,669.399170 772.712524,672.083923 772.001465,674.540833 
	C760.183777,715.369873 734.837097,744.877136 696.951233,763.801636 
	C695.639282,764.456970 694.126465,764.710144 692.324707,765.041870 
	C692.589722,764.313843 693.131287,763.469604 693.899963,763.107605 
	C730.916382,745.673767 755.874939,717.534546 769.260681,678.211792 
	C769.699036,677.037476 769.776001,676.424622 769.852905,675.811829 
	C769.958069,675.426819 770.063293,675.041748 770.475891,674.147949 
	C770.830872,673.049744 770.878418,672.460266 770.926025,671.870789 
	C771.249390,670.502136 771.572815,669.133484 771.968872,667.421448 
z"/>
<path fill="#2C6139" opacity="1.000000" stroke="none" 
	d="
M191.940323,798.694824 
	C191.837204,799.176636 191.684921,799.277466 191.108902,798.991638 
	C189.484024,798.582581 188.282867,798.560242 187.081711,798.537903 
	C160.189560,793.639954 137.110779,781.280823 117.218399,762.739807 
	C115.701988,761.326477 114.535141,759.538025 113.427170,757.598633 
	C114.109161,757.179871 114.569771,757.086426 115.013382,756.999023 
	C114.996376,757.005066 114.996719,756.968994 115.016281,757.259216 
	C115.366814,757.697449 115.697777,757.845520 116.013901,757.996887 
	C115.999069,758.000183 116.007530,757.970520 116.007530,757.970520 
	C123.514275,767.834961 133.758301,774.364075 144.156509,780.561951 
	C158.433624,789.071838 173.816177,794.771484 190.318542,797.272217 
	C190.882401,797.357727 191.368683,797.955078 191.940323,798.694824 
z"/>
<path fill="#2C580D" opacity="1.000000" stroke="none" 
	d="
M107.095001,748.396423 
	C120.832855,757.951172 135.505981,765.575928 151.697250,770.098267 
	C152.410645,770.297546 152.984070,770.997986 153.847504,771.734009 
	C145.352158,768.982849 136.584290,766.091309 127.933571,762.883850 
	C124.073936,761.452820 120.449814,759.386597 116.363174,757.789551 
	C116.007530,757.970520 115.999069,758.000183 116.068535,757.673767 
	C115.757576,757.221252 115.377144,757.095154 114.996719,756.968994 
	C114.996719,756.968994 114.996376,757.005066 114.866463,756.667603 
	C113.788986,756.295593 112.841431,756.260925 111.893860,756.226318 
	C110.885208,755.545410 109.876556,754.864441 108.774132,753.534058 
	C108.322983,752.643860 107.965607,752.403137 107.608246,752.162354 
	C107.320877,752.115723 107.108040,751.964355 106.944206,751.025574 
	C106.977448,749.694092 107.036224,749.045288 107.095001,748.396423 
z"/>
<path fill="#34570F" opacity="1.000000" stroke="none" 
	d="
M769.012939,145.633972 
	C765.834106,139.154556 763.060791,132.056198 759.451843,125.411758 
	C755.730835,118.560890 751.196289,112.151909 747.279724,105.238968 
	C748.080383,104.925919 748.619080,104.923500 749.157715,104.921082 
	C751.082642,107.360413 753.007568,109.799759 755.020020,112.923538 
	C755.734680,114.082458 756.361755,114.556953 756.994873,115.015945 
	C757.000916,115.000435 756.968811,115.008698 756.968811,115.008690 
	C760.449463,122.681549 764.028748,130.312119 767.348511,138.053940 
	C768.301208,140.275665 768.504578,142.818695 769.012939,145.633972 
z"/>
<path fill="#34570F" opacity="1.000000" stroke="none" 
	d="
M773.213623,158.612976 
	C771.608704,154.808136 770.174011,150.808655 768.840088,146.401535 
	C770.421814,150.135391 771.902893,154.276855 773.213623,158.612976 
z"/>
<path fill="#2C580D" opacity="1.000000" stroke="none" 
	d="
M679.016296,769.083069 
	C682.096375,767.928467 685.176453,766.773804 688.650879,765.570801 
	C685.987671,767.034973 682.930054,768.547546 679.454407,769.831299 
	C679.029663,769.429321 679.022949,769.256165 679.016296,769.083069 
z"/>
<path fill="#34570F" opacity="1.000000" stroke="none" 
	d="
M678.674072,769.077637 
	C679.022949,769.256165 679.029663,769.429321 679.057251,769.861633 
	C677.893738,770.538330 676.709351,770.955933 675.323975,771.194580 
	C676.192688,770.367859 677.262268,769.720032 678.674072,769.077637 
z"/>
<path fill="#04AB2B" opacity="1.000000" stroke="none" 
	d="
M208.158859,799.948120 
	C207.004120,799.856628 206.147720,799.702759 205.042145,799.325684 
	C206.001968,799.136963 207.210999,799.171509 208.710693,799.408386 
	C208.819992,799.702393 208.638596,799.794067 208.158859,799.948120 
z"/>
<path fill="#04AB2B" opacity="1.000000" stroke="none" 
	d="
M799.109070,207.157410 
	C799.448059,207.007599 799.653259,207.250458 799.894409,207.766968 
	C799.962463,208.446426 799.927979,208.908554 799.768005,209.694916 
	C799.442383,209.177338 799.242188,208.335541 799.109070,207.157410 
z"/>
<path fill="#04AB2B" opacity="1.000000" stroke="none" 
	d="
M668.895386,799.085327 
	C668.720581,799.403320 668.202515,799.664368 667.393616,799.968384 
	C666.907532,799.970520 666.712219,799.929749 666.252686,799.747681 
	C666.843018,799.413696 667.697571,799.221069 668.895386,799.085327 
z"/>
<path fill="#2C6139" opacity="1.000000" stroke="none" 
	d="
M757.195129,113.036026 
	C757.827332,113.498535 758.459534,113.961044 759.245117,114.695450 
	C758.855347,114.932198 758.312256,114.897041 757.369019,114.935295 
	C756.968811,115.008698 757.000916,115.000435 757.095947,114.693260 
	C757.192444,113.936066 757.193787,113.486053 757.195129,113.036026 
z"/>
<path fill="#2C580D" opacity="1.000000" stroke="none" 
	d="
M689.627136,765.458496 
	C690.029175,764.939087 690.589050,764.751160 691.557190,764.741760 
	C691.238647,765.210144 690.511780,765.500061 689.627136,765.458496 
z"/>
<path fill="#857802" opacity="1.000000" stroke="none" 
	d="
M669.235168,771.959595 
	C669.242004,771.802734 669.572754,771.694336 670.054199,771.742310 
	C669.989685,771.935059 669.774414,771.971558 669.235168,771.959595 
z"/>
<path fill="#2C580D" opacity="1.000000" stroke="none" 
	d="
M154.045822,772.091797 
	C153.945267,771.976196 154.424927,771.907532 154.657883,771.970215 
	C154.890839,772.032959 154.548859,772.304016 154.548859,772.304016 
	C154.548859,772.304016 154.146378,772.207336 154.045822,772.091797 
z"/>
<path fill="#000000" opacity="1.000000" stroke="none" 
	d="
M1.907968,601.607788 
	C1.949742,597.667114 1.998197,594.168945 1.998278,590.670837 
	C2.001788,440.184875 1.996646,289.698883 2.023100,139.212921 
	C2.023848,134.953644 2.355979,130.694412 2.207200,126.194008 
	C3.973831,107.801323 9.107911,90.546066 18.040409,74.608948 
	C39.737949,35.896782 72.362778,12.056548 116.028961,3.580669 
	C118.620598,3.077616 121.318062,3.119806 124.395912,2.912682 
	C129.944626,2.610818 135.063614,2.038581 140.182800,2.036953 
	C290.035126,1.989312 439.887451,1.993168 589.739807,2.023952 
	C594.334778,2.024897 598.929626,2.400365 603.771484,2.277815 
	C610.633240,3.225623 617.337646,4.149227 623.847229,5.828311 
	C651.862427,13.054500 675.305969,27.759317 694.286499,49.586891 
	C696.673584,52.331966 699.038574,55.096252 701.653992,58.440041 
	C703.321289,61.013966 704.748352,62.999493 706.158875,65.332703 
	C721.302979,88.771530 728.407166,114.285614 728.420410,141.749863 
	C728.492249,290.403076 728.492126,439.056427 728.355957,587.709595 
	C728.348267,596.151855 727.466370,604.685425 726.061340,613.019714 
	C714.990784,678.690186 656.832397,728.304504 590.239380,728.389282 
	C439.919830,728.580566 289.599579,728.573730 139.280670,728.214783 
	C127.123169,728.185791 114.562218,726.198425 102.929565,722.675110 
	C89.843262,718.711609 77.597580,711.972595 64.811317,706.179321 
	C62.381054,704.645386 60.125683,703.373047 57.870308,702.100647 
	C47.427742,691.003845 36.177303,680.547485 26.744585,668.649963 
	C14.616578,653.352905 7.764022,635.247742 3.942532,616.101685 
	C3.017293,611.466187 2.562959,606.736633 1.907968,601.607788 
M421.500000,476.999573 
	C496.811920,476.999573 572.123840,477.001862 647.435791,476.997925 
	C665.264587,476.996979 674.995483,467.322845 674.997253,449.586090 
	C675.003479,387.103821 675.001953,324.621521 674.998047,262.139252 
	C674.996948,244.805511 665.131348,235.003571 647.661133,235.003143 
	C473.210602,234.998810 298.760071,234.998718 124.309555,235.003204 
	C106.858124,235.003647 97.003006,244.816101 97.001984,262.164429 
	C96.998314,324.480103 96.998871,386.795746 97.001526,449.111420 
	C97.002304,467.528015 106.540291,476.998566 125.083771,476.998871 
	C223.555847,477.000427 322.027924,476.999573 421.500000,476.999573 
z"/>
<path fill="#56542B" opacity="1.000000" stroke="none" 
	d="
M747.294006,103.584915 
	C745.945496,103.084641 744.706299,102.380356 743.694885,101.432945 
	C739.343689,97.357025 735.059265,93.209702 730.272461,88.831520 
	C728.126038,86.889435 726.457581,85.204231 724.984497,83.192886 
	C725.555298,82.535057 725.930786,82.203354 726.306274,81.871643 
	C733.373596,89.004105 740.440918,96.136574 747.294006,103.584915 
z"/>
<path fill="#274051" opacity="1.000000" stroke="none" 
	d="
M726.126404,81.581497 
	C725.930786,82.203354 725.555298,82.535057 724.706787,82.966019 
	C719.398804,77.482353 714.563782,71.899422 709.948730,66.060280 
	C710.307068,65.626549 710.445496,65.449043 710.583923,65.271545 
	C715.704773,70.611481 720.825623,75.951401 726.126404,81.581497 
z"/>
<path fill="#274051" opacity="1.000000" stroke="none" 
	d="
M706.175415,64.985016 
	C704.748352,62.999493 703.321289,61.013966 701.898987,58.686214 
	C704.686584,60.470367 707.469299,62.596745 710.417969,64.997330 
	C710.445496,65.449043 710.307068,65.626549 709.660156,65.919586 
	C708.159546,65.685081 707.167480,65.335052 706.175415,64.985016 
z"/>
<path fill="#05E93B" opacity="1.000000" stroke="none" 
	d="
M756.870850,112.968567 
	C757.193787,113.486053 757.192444,113.936066 757.089966,114.708771 
	C756.361755,114.556953 755.734680,114.082458 755.167053,113.255066 
	C755.666565,112.901810 756.106506,112.901459 756.870850,112.968567 
z"/>
<path fill="#56542B" opacity="1.000000" stroke="none" 
	d="
M748.986328,104.606682 
	C748.619080,104.923500 748.080383,104.925919 747.135742,104.912270 
	C746.672058,104.688217 746.614441,104.480225 746.828735,104.096649 
	C747.672119,104.044792 748.243530,104.168533 748.986328,104.606682 
z"/>
<path fill="#274051" opacity="1.000000" stroke="none" 
	d="
M57.937668,702.432251 
	C60.125683,703.373047 62.381054,704.645386 64.816536,706.559814 
	C71.178635,713.063904 77.360626,718.925842 83.092285,724.881775 
	C82.030266,725.017761 81.418579,725.059753 80.806877,725.101746 
	C73.206253,717.655823 65.605637,710.209900 57.937668,702.432251 
z"/>
<path fill="#56542B" opacity="1.000000" stroke="none" 
	d="
M91.007858,732.888306 
	C94.443359,736.447876 97.862534,740.023499 101.322487,743.559143 
	C102.675323,744.941650 104.119728,746.234558 105.207153,747.824341 
	C99.151802,743.097229 93.411728,738.114014 87.703735,732.681885 
	C87.866554,732.113098 87.997299,731.993225 88.455948,731.954163 
	C89.209412,732.012695 89.634995,731.990417 90.031754,731.981995 
	C90.002930,731.995911 90.018288,731.933716 89.958923,732.273193 
	C90.287941,732.732422 90.676315,732.852112 91.029205,732.965454 
	C90.993729,732.959045 91.007858,732.888306 91.007858,732.888306 
z"/>
<path fill="#56542B" opacity="1.000000" stroke="none" 
	d="
M80.934830,725.413025 
	C81.418579,725.059753 82.030266,725.017761 83.357399,724.996826 
	C85.368851,725.974426 86.664856,726.930969 87.948700,728.300049 
	C87.979828,729.534302 88.023125,730.356018 88.076439,731.352112 
	C88.086464,731.526489 88.128052,731.873291 88.128052,731.873291 
	C87.997299,731.993225 87.866554,732.113098 87.525940,732.396851 
	C85.231628,730.281860 83.147194,728.003113 80.934830,725.413025 
z"/>
<path fill="#56542B" opacity="1.000000" stroke="none" 
	d="
M106.857910,748.130127 
	C107.036224,749.045288 106.977448,749.694092 106.891617,750.830811 
	C106.039917,750.432434 105.215271,749.546143 104.652306,748.381409 
	C105.482933,748.023193 106.051880,747.943481 106.857910,748.130127 
z"/>
<path fill="#406549" opacity="1.000000" stroke="none" 
	d="
M187.454437,798.693604 
	C188.282867,798.560242 189.484024,798.582581 190.860229,798.876587 
	C189.965927,799.048584 188.896545,798.948914 187.454437,798.693604 
z"/>
<path fill="#05E93B" opacity="1.000000" stroke="none" 
	d="
M111.980667,756.477173 
	C112.841431,756.260925 113.788986,756.295593 114.883469,756.661560 
	C114.569771,757.086426 114.109161,757.179871 113.296501,757.297485 
	C112.652122,757.123718 112.359795,756.925842 111.980667,756.477173 
z"/>
<path fill="#56542B" opacity="1.000000" stroke="none" 
	d="
M107.707642,752.467590 
	C107.965607,752.403137 108.322983,752.643860 108.741180,753.216064 
	C108.470352,753.289307 108.138702,753.031006 107.707642,752.467590 
z"/>
<path fill="#0580D5" opacity="1.000000" stroke="none" 
	d="
M87.960861,727.887573 
	C86.664856,726.930969 85.368851,725.974426 83.807724,724.902832 
	C77.360626,718.925842 71.178635,713.063904 64.991425,706.821411 
	C77.597580,711.972595 89.843262,718.711609 102.929565,722.675110 
	C114.562218,726.198425 127.123169,728.185791 139.280670,728.214783 
	C289.599579,728.573730 439.919830,728.580566 590.239380,728.389282 
	C656.832397,728.304504 714.990784,678.690186 726.061340,613.019714 
	C727.466370,604.685425 728.348267,596.151855 728.355957,587.709595 
	C728.492126,439.056427 728.492249,290.403076 728.420410,141.749863 
	C728.407166,114.285614 721.302979,88.771530 706.158875,65.332695 
	C707.167480,65.335052 708.159546,65.685081 709.440186,66.175812 
	C714.563782,71.899422 719.398804,77.482353 724.511475,83.292152 
	C726.457581,85.204231 728.126038,86.889435 729.923767,88.899345 
	C733.980408,97.171051 738.063782,105.046288 741.768311,113.095833 
	C743.571899,117.014801 744.668213,121.259232 745.984741,126.150543 
	C747.642273,137.592438 749.399780,148.240097 751.086060,159.362305 
	C751.016602,308.982544 751.017883,458.128235 751.022522,607.273926 
	C751.022705,612.602783 751.054932,617.931580 751.044678,623.671387 
	C749.974670,630.810059 748.980896,637.545837 747.864929,644.261292 
	C747.441040,646.811646 746.736145,649.315247 746.159241,651.840149 
	C744.467468,656.717224 742.775635,661.594360 740.832520,667.116821 
	C733.660095,678.654602 726.746826,689.552063 719.810425,700.434753 
	C718.597229,702.338196 717.286743,704.179626 716.021118,706.049622 
	C716.021118,706.049622 715.999329,706.000549 715.717651,706.011536 
	C715.307434,706.377380 715.178955,706.732178 715.050537,707.087036 
	C715.050537,707.087036 715.011475,707.025024 714.790283,707.106079 
	C714.380798,707.583862 714.192383,707.980591 714.004028,708.377319 
	C714.004028,708.377319 713.789978,708.764221 713.320923,708.811157 
	C712.576416,709.354187 712.300964,709.850281 712.025513,710.346436 
	C711.308044,711.140076 710.590576,711.933716 709.320923,712.997192 
	C708.517517,713.636902 708.266235,714.006836 708.014893,714.376770 
	C707.987549,714.572327 707.895508,714.730225 707.244141,714.895020 
	C706.501343,715.309875 706.253174,715.679993 706.004944,716.050110 
	C706.004944,716.050110 705.998779,715.997131 705.671692,715.963074 
	C693.378723,725.741150 680.787354,734.546631 666.299194,740.333740 
	C665.841187,740.516663 665.651184,741.370544 665.336304,741.911621 
	C654.998474,744.641235 644.660706,747.370850 633.454468,750.019836 
	C629.479065,750.319763 626.372009,750.700439 622.774902,751.006409 
	C469.613129,750.958374 316.941376,750.984619 164.269608,751.014771 
	C161.110474,751.015381 157.951355,751.061707 154.370728,751.056152 
	C149.167953,750.725159 144.386688,750.424805 139.605423,750.124390 
	C131.686279,747.765076 123.767136,745.405762 115.313736,742.695862 
	C105.839935,737.526001 96.900398,732.706787 87.960861,727.887573 
z"/>
<path fill="#665C03" opacity="1.000000" stroke="none" 
	d="
M746.514771,651.789490 
	C746.736145,649.315247 747.441040,646.811646 747.864929,644.261292 
	C748.980896,637.545837 749.974670,630.810059 751.285583,623.307800 
	C751.700134,618.377197 751.973267,614.221191 751.973877,610.065186 
	C751.995850,462.734497 751.992859,315.403839 751.987366,168.073166 
	C751.987244,165.073883 751.914185,162.074600 751.926880,158.798843 
	C752.146973,157.994705 752.315430,157.467041 752.483765,156.939362 
	C752.650391,159.585190 752.962402,162.230988 752.962830,164.876816 
	C752.986267,314.328522 753.097900,463.780487 752.770264,613.231445 
	C752.743591,625.405090 749.712891,637.574158 748.016663,649.736816 
	C747.918091,650.443665 747.265259,651.073303 746.514771,651.789490 
z"/>
<path fill="#675C03" opacity="1.000000" stroke="none" 
	d="
M623.264954,751.081177 
	C626.372009,750.700439 629.479065,750.319763 633.059875,750.009827 
	C632.114929,750.707275 630.735046,751.750610 629.270630,751.887085 
	C623.643372,752.411072 617.989136,752.941101 612.344788,752.943176 
	C463.434937,752.997681 314.525085,753.025696 165.615372,752.883118 
	C157.183044,752.875061 148.752151,751.374146 139.963013,750.346191 
	C144.386688,750.424805 149.167953,750.725159 154.735184,751.286133 
	C159.510010,751.695923 163.498810,751.973755 167.487717,751.975098 
	C243.145477,752.000916 318.803223,751.994202 394.460999,751.994080 
	C466.952484,751.994019 539.443970,752.007385 611.935425,751.954773 
	C615.712097,751.952026 619.488464,751.385315 623.264954,751.081177 
z"/>
<path fill="#293F2F" opacity="1.000000" stroke="none" 
	d="
M665.685181,741.993164 
	C665.651184,741.370544 665.841187,740.516663 666.299194,740.333740 
	C680.787354,734.546631 693.378723,725.741150 705.696350,715.973267 
	C705.314819,717.040894 704.751831,718.263550 703.822571,719.057373 
	C692.467468,728.756714 680.062927,736.755127 665.685181,741.993164 
z"/>
<path fill="#293F2F" opacity="1.000000" stroke="none" 
	d="
M716.365967,706.040771 
	C717.286743,704.179626 718.597229,702.338196 719.810425,700.434753 
	C726.746826,689.552063 733.660095,678.654602 740.801331,667.510254 
	C735.440125,681.764282 727.809814,694.985535 716.365967,706.040771 
z"/>
<path fill="#293F2F" opacity="1.000000" stroke="none" 
	d="
M752.524353,156.518005 
	C752.315430,157.467041 752.146973,157.994705 751.749023,158.746338 
	C751.519592,158.970322 751.157349,158.887756 751.157349,158.887756 
	C749.399780,148.240097 747.642273,137.592438 745.965698,126.553497 
	C746.758484,127.341942 747.885681,128.446487 748.114929,129.713516 
	C749.702759,138.488968 751.103882,147.298218 752.524353,156.518005 
z"/>
<path fill="#293F2F" opacity="1.000000" stroke="none" 
	d="
M87.948700,728.300049 
	C96.900398,732.706787 105.839935,737.526001 114.928101,742.655029 
	C107.242287,739.393311 99.407852,735.821838 91.290634,732.569336 
	C91.007858,732.888306 90.993729,732.959045 91.192795,732.585327 
	C90.933998,732.118958 90.476151,732.026306 90.018295,731.933716 
	C90.018288,731.933716 90.002930,731.995911 90.049133,731.636047 
	C89.419037,731.243347 88.742722,731.210571 88.066414,731.177734 
	C88.023125,730.356018 87.979828,729.534302 87.948700,728.300049 
z"/>
<path fill="#293F2F" opacity="1.000000" stroke="none" 
	d="
M714.223450,708.277222 
	C714.192383,707.980591 714.380798,707.583862 714.826782,707.102661 
	C714.870605,707.404541 714.656799,707.790833 714.223450,708.277222 
z"/>
<path fill="#897801" opacity="1.000000" stroke="none" 
	d="
M769.627686,676.034973 
	C769.776001,676.424622 769.699036,677.037476 769.398926,677.875061 
	C769.251343,677.485962 769.326904,676.872009 769.627686,676.034973 
z"/>
<path fill="#293F2F" opacity="1.000000" stroke="none" 
	d="
M712.263977,710.256775 
	C712.300964,709.850281 712.576416,709.354187 713.130249,708.922974 
	C713.106506,709.380920 712.804504,709.774048 712.263977,710.256775 
z"/>
<path fill="#897801" opacity="1.000000" stroke="none" 
	d="
M770.731079,672.106140 
	C770.878418,672.460266 770.830872,673.049744 770.592651,673.871948 
	C770.446777,673.516968 770.491516,672.929199 770.731079,672.106140 
z"/>
<path fill="#293F2F" opacity="1.000000" stroke="none" 
	d="
M715.334290,707.045166 
	C715.178955,706.732178 715.307434,706.377380 715.743347,706.018982 
	C715.906555,706.344727 715.762268,706.673950 715.334290,707.045166 
z"/>
<path fill="#293F2F" opacity="1.000000" stroke="none" 
	d="
M708.312012,714.222656 
	C708.266235,714.006836 708.517517,713.636902 709.089539,713.140259 
	C709.143188,713.365173 708.876160,713.716858 708.312012,714.222656 
z"/>
<path fill="#293F2F" opacity="1.000000" stroke="none" 
	d="
M706.330444,716.011719 
	C706.253174,715.679993 706.501343,715.309875 707.115479,714.949951 
	C707.206238,715.297852 706.931091,715.635620 706.330444,716.011719 
z"/>
<path fill="#05E93B" opacity="1.000000" stroke="none" 
	d="
M115.016281,757.259216 
	C115.377144,757.095154 115.757576,757.221252 116.083366,757.670471 
	C115.697777,757.845520 115.366814,757.697449 115.016281,757.259216 
z"/>
<path fill="#D550D5" opacity="1.000000" stroke="none" 
	d="
M421.000000,476.999573 
	C322.027924,476.999573 223.555847,477.000427 125.083771,476.998871 
	C106.540291,476.998566 97.002304,467.528015 97.001526,449.111420 
	C96.998871,386.795746 96.998314,324.480103 97.001984,262.164429 
	C97.003006,244.816101 106.858124,235.003647 124.309555,235.003204 
	C298.760071,234.998718 473.210602,234.998810 647.661133,235.003143 
	C665.131348,235.003571 674.996948,244.805511 674.998047,262.139252 
	C675.001953,324.621521 675.003479,387.103821 674.997253,449.586090 
	C674.995483,467.322845 665.264587,476.996979 647.435791,476.997925 
	C572.123840,477.001862 496.811920,476.999573 421.000000,476.999573 
M522.226501,284.627075 
	C491.663269,301.689056 476.657532,327.459503 478.925262,362.662537 
	C480.476562,386.744476 491.476898,406.039398 510.680359,420.208191 
	C533.534546,437.070679 559.537354,440.374146 586.781616,434.898804 
	C617.942810,428.636200 647.682495,404.888580 651.649719,363.776764 
	C654.887390,330.225037 638.168945,298.161926 605.572388,283.489929 
	C578.110474,271.129120 550.331543,271.929901 522.226501,284.627075 
M234.202621,375.181091 
	C240.439545,377.415466 246.975082,379.061707 252.835556,382.037445 
	C259.702637,385.524323 259.814636,394.157074 253.304688,398.314392 
	C250.454025,400.134918 246.950394,401.293976 243.590256,401.888275 
	C233.292816,403.709564 222.883347,403.241882 212.937775,400.282837 
	C202.179703,397.082001 191.759964,392.743958 180.545059,388.666473 
	C176.149155,398.579895 171.400574,409.288605 166.530624,420.271057 
	C168.681366,421.539307 170.327484,422.643402 172.084824,423.526154 
	C197.803757,436.445740 225.069138,439.708038 253.212738,435.509827 
	C268.370911,433.248627 281.896667,426.986145 291.906677,414.707581 
	C306.767151,396.479187 307.205872,363.059784 278.341705,350.252960 
	C268.396637,345.840393 257.630585,343.240112 247.170273,340.038269 
	C237.822052,337.176819 228.069366,335.384430 219.070053,331.711639 
	C211.200134,328.499725 210.957962,319.464874 217.884323,314.422424 
	C219.987152,312.891541 222.567184,311.259735 225.020035,311.102814 
	C233.578720,310.555420 242.398972,309.355560 250.705063,310.795685 
	C261.196686,312.614746 271.281738,316.779083 281.924255,320.049164 
	C285.299103,311.946381 288.845337,302.989014 292.770935,294.201080 
	C294.623749,290.053375 294.105011,287.878601 289.691406,285.781799 
	C269.383545,276.133789 247.945053,273.712585 225.904358,275.446777 
	C212.813293,276.476746 200.592987,280.413330 189.404556,287.705536 
	C163.701370,304.458008 159.719467,349.729736 195.192001,363.859650 
	C207.458801,368.745941 220.630447,371.360596 234.202621,375.181091 
M455.500610,278.012054 
	C450.337402,278.012085 445.162079,278.226471 440.015411,277.934570 
	C436.744263,277.749054 435.354370,279.163208 434.177948,281.960114 
	C423.667908,306.947632 413.046387,331.888306 402.437439,356.834167 
	C399.346893,364.101318 396.191406,371.340820 392.788727,379.235657 
	C391.934937,377.318634 391.443329,376.271210 390.997131,375.204834 
	C378.031372,344.214508 365.004639,313.249329 352.201904,282.191772 
	C350.806458,278.806641 349.052246,277.879517 345.599365,277.934845 
	C333.277924,278.132324 320.951416,278.012085 308.626801,278.012085 
	C306.893219,278.012085 305.159637,278.012085 302.911163,278.012085 
	C303.466370,279.526642 303.709167,280.295532 304.024261,281.033569 
	C325.314941,330.896271 346.628082,380.749420 367.858185,430.637848 
	C368.920013,433.133057 370.194214,434.147064 373.003540,434.109222 
	C384.992859,433.947693 396.987854,433.913635 408.975647,434.124146 
	C412.247803,434.181580 413.618774,432.844238 414.801361,430.071564 
	C433.527649,386.167419 452.344086,342.301666 471.128143,298.422119 
	C473.917999,291.904999 476.648102,285.362305 479.751831,278.012085 
	C471.366577,278.012085 463.933411,278.012085 455.500610,278.012054 
M135.363770,435.153900 
	C147.044830,431.755768 153.854980,422.896729 153.916565,411.019318 
	C153.978088,399.154938 147.339981,390.145996 136.126251,386.875092 
	C124.755157,383.558258 112.307648,387.617432 106.685028,397.067566 
	C101.216797,406.258209 101.350433,415.841827 106.992294,424.941498 
	C112.522247,433.860718 122.931702,437.577423 135.363770,435.153900 
z"/>
<path fill="#FEF500" opacity="1.000000" stroke="none" 
	d="
M88.076439,731.352112 
	C88.742722,731.210571 89.419037,731.243347 90.077957,731.622131 
	C89.634995,731.990417 89.209412,732.012695 88.455948,731.954163 
	C88.128052,731.873291 88.086464,731.526489 88.076439,731.352112 
z"/>
<path fill="#FEF500" opacity="1.000000" stroke="none" 
	d="
M89.958923,732.273193 
	C90.476151,732.026306 90.933998,732.118958 91.228271,732.591675 
	C90.676315,732.852112 90.287941,732.732422 89.958923,732.273193 
z"/>
<path fill="#002358" opacity="1.000000" stroke="none" 
	d="
M622.774902,751.006470 
	C619.488464,751.385315 615.712097,751.952026 611.935425,751.954773 
	C539.443970,752.007385 466.952484,751.994019 394.460999,751.994080 
	C318.803223,751.994202 243.145477,752.000916 167.487717,751.975098 
	C163.498810,751.973755 159.510010,751.695923 155.156677,751.316772 
	C157.951355,751.061707 161.110474,751.015381 164.269608,751.014771 
	C316.941376,750.984619 469.613129,750.958374 622.774902,751.006470 
z"/>
<path fill="#002358" opacity="1.000000" stroke="none" 
	d="
M751.086060,159.362305 
	C751.157349,158.887756 751.519592,158.970322 751.697388,159.022827 
	C751.914185,162.074600 751.987244,165.073883 751.987366,168.073166 
	C751.992859,315.403839 751.995850,462.734497 751.973877,610.065186 
	C751.973267,614.221191 751.700134,618.377197 751.313171,622.896851 
	C751.054932,617.931580 751.022705,612.602783 751.022522,607.273926 
	C751.017883,458.128235 751.016602,308.982544 751.086060,159.362305 
z"/>
<path fill="#FFFEFF" opacity="1.000000" stroke="none" 
	d="
M522.552002,284.441589 
	C550.331543,271.929901 578.110474,271.129120 605.572388,283.489929 
	C638.168945,298.161926 654.887390,330.225037 651.649719,363.776764 
	C647.682495,404.888580 617.942810,428.636200 586.781616,434.898804 
	C559.537354,440.374146 533.534546,437.070679 510.680359,420.208191 
	C491.476898,406.039398 480.476562,386.744476 478.925262,362.662537 
	C476.657532,327.459503 491.663269,301.689056 522.552002,284.441589 
M580.986938,397.663147 
	C583.073120,396.637695 585.281860,395.803284 587.226196,394.556580 
	C602.972473,384.460419 607.851929,369.371857 607.044434,351.560822 
	C605.865051,325.546265 581.882202,306.932678 556.406677,312.413116 
	C537.779297,316.420319 526.365906,328.771240 523.704590,349.708160 
	C519.137634,385.637543 547.670288,408.052582 580.986938,397.663147 
z"/>
<path fill="#FFFEFF" opacity="1.000000" stroke="none" 
	d="
M233.795715,375.096985 
	C220.630447,371.360596 207.458801,368.745941 195.192001,363.859650 
	C159.719467,349.729736 163.701370,304.458008 189.404556,287.705536 
	C200.592987,280.413330 212.813293,276.476746 225.904358,275.446777 
	C247.945053,273.712585 269.383545,276.133789 289.691406,285.781799 
	C294.105011,287.878601 294.623749,290.053375 292.770935,294.201080 
	C288.845337,302.989014 285.299103,311.946381 281.924255,320.049164 
	C271.281738,316.779083 261.196686,312.614746 250.705063,310.795685 
	C242.398972,309.355560 233.578720,310.555420 225.020035,311.102814 
	C222.567184,311.259735 219.987152,312.891541 217.884323,314.422424 
	C210.957962,319.464874 211.200134,328.499725 219.070053,331.711639 
	C228.069366,335.384430 237.822052,337.176819 247.170273,340.038269 
	C257.630585,343.240112 268.396637,345.840393 278.341705,350.252960 
	C307.205872,363.059784 306.767151,396.479187 291.906677,414.707581 
	C281.896667,426.986145 268.370911,433.248627 253.212738,435.509827 
	C225.069138,439.708038 197.803757,436.445740 172.084824,423.526154 
	C170.327484,422.643402 168.681366,421.539307 166.530624,420.271057 
	C171.400574,409.288605 176.149155,398.579895 180.545059,388.666473 
	C191.759964,392.743958 202.179703,397.082001 212.937775,400.282837 
	C222.883347,403.241882 233.292816,403.709564 243.590256,401.888275 
	C246.950394,401.293976 250.454025,400.134918 253.304688,398.314392 
	C259.814636,394.157074 259.702637,385.524323 252.835556,382.037445 
	C246.975082,379.061707 240.439545,377.415466 233.795715,375.096985 
z"/>
<path fill="#FFFEFF" opacity="1.000000" stroke="none" 
	d="
M456.000427,278.012085 
	C463.933411,278.012085 471.366577,278.012085 479.751831,278.012085 
	C476.648102,285.362305 473.917999,291.904999 471.128143,298.422119 
	C452.344086,342.301666 433.527649,386.167419 414.801361,430.071564 
	C413.618774,432.844238 412.247803,434.181580 408.975647,434.124146 
	C396.987854,433.913635 384.992859,433.947693 373.003540,434.109222 
	C370.194214,434.147064 368.920013,433.133057 367.858185,430.637848 
	C346.628082,380.749420 325.314941,330.896271 304.024261,281.033569 
	C303.709167,280.295532 303.466370,279.526642 302.911163,278.012085 
	C305.159637,278.012085 306.893219,278.012085 308.626801,278.012085 
	C320.951416,278.012085 333.277924,278.132324 345.599365,277.934845 
	C349.052246,277.879517 350.806458,278.806641 352.201904,282.191772 
	C365.004639,313.249329 378.031372,344.214508 390.997131,375.204834 
	C391.443329,376.271210 391.934937,377.318634 392.788727,379.235657 
	C396.191406,371.340820 399.346893,364.101318 402.437439,356.834167 
	C413.046387,331.888306 423.667908,306.947632 434.177948,281.960114 
	C435.354370,279.163208 436.744263,277.749054 440.015411,277.934570 
	C445.162079,278.226471 450.337402,278.012085 456.000427,278.012085 
z"/>
<path fill="#FFFDFF" opacity="1.000000" stroke="none" 
	d="
M134.957428,435.259460 
	C122.931702,437.577423 112.522247,433.860718 106.992294,424.941498 
	C101.350433,415.841827 101.216797,406.258209 106.685028,397.067566 
	C112.307648,387.617432 124.755157,383.558258 136.126251,386.875092 
	C147.339981,390.145996 153.978088,399.154938 153.916565,411.019318 
	C153.854980,422.896729 147.044830,431.755768 134.957428,435.259460 
z"/>
<path fill="#D551D5" opacity="1.000000" stroke="none" 
	d="
M580.618286,397.804871 
	C547.670288,408.052582 519.137634,385.637543 523.704590,349.708160 
	C526.365906,328.771240 537.779297,316.420319 556.406677,312.413116 
	C581.882202,306.932678 605.865051,325.546265 607.044434,351.560822 
	C607.851929,369.371857 602.972473,384.460419 587.226196,394.556580 
	C585.281860,395.803284 583.073120,396.637695 580.618286,397.804871 
z"/>
</svg>